<?xml version="1.0" encoding="utf-8"?>
<svg width="50.901" height="48" viewBox="0 0 50.901 48" fill="none" xmlns="http://www.w3.org/2000/svg">
  <defs>
    <linearGradient id="gradient_1" gradientUnits="userSpaceOnUse" x1="44.327" y1="43.626" x2="3.2" y2="2.5">
      <stop offset="0" stop-color="#0E95E0" />
      <stop offset="1" stop-color="#2FBDEE" />
    </linearGradient>
    <linearGradient id="gradient_2" gradientUnits="userSpaceOnUse" x1="43.835" y1="34.345" x2="7.065" y2="-2.424">
      <stop offset="0" stop-color="#1EB4EB" />
      <stop offset="0.54" stop-color="#1EB4EB" />
      <stop offset="1" stop-color="#92F4FE" />
    </linearGradient>
  </defs>
  <g>
    <path d="M43.6124 42.1931C31.5255 43.3021 19.3624 43.3021 7.27557 42.1931C4.2084 41.8941 1.2623 39.0691 0.872181 35.9945C-0.290716 26.2888 -0.290735 16.4789 0.872172 6.77306C1.26229 3.69995 4.2069 0.877952 7.27556 0.577518C9.93915 0.332387 12.6047 0.141563 15.2723 0.00504613C16.273 -0.0519871 17.2397 0.377107 17.8687 1.15746C19.4366 3.07218 21.0778 5.02276 22.7654 6.9868C23.2003 7.49399 23.8356 7.78515 24.5037 7.78348C31.1363 7.76555 37.7659 7.93694 44.3925 8.29766C47.6046 8.49048 50.5029 11.1989 50.6912 14.2765C51.1096 21.5189 50.885 28.7842 50.0201 35.987C49.6256 39.0676 46.6795 41.8896 43.6124 42.1931Z" fill="url(#gradient_1)" fill-rule="evenodd" transform="translate(0.006 0)" />
    <path d="M25.4467 3.8147e-05C19.129 3.8147e-05 25.4467 3.8147e-05 25.4467 3.8147e-05C19.129 3.8147e-05 12.8143 0.170932 6.50257 0.51272C3.29041 0.705536 0.392147 3.41394 0.203813 6.49153C-0.21172 13.7274 0.00650928 18.9887 0.873448 26.2141C1.26805 29.2902 4.22162 32.1167 7.28132 32.4157C13.327 32.9697 19.3831 33.2472 25.4497 33.2482C31.5162 33.2492 37.5719 32.9717 43.6165 32.4157C46.6852 32.1167 49.6298 29.2917 50.0214 26.2186C50.8883 18.9932 51.1066 13.7319 50.691 6.49602C50.5027 3.41544 47.6059 0.707035 44.3923 0.517207C38.0835 0.169437 31.7683 -0.00295162 25.4467 3.8147e-05Z" fill="url(#gradient_2)" fill-rule="evenodd" transform="translate(0 14.752)" />
  </g>
</svg>